<svg width="20" height="20" viewBox="0 0 20 20" fill="none" xmlns="http://www.w3.org/2000/svg">
<path fill-rule="evenodd" clip-rule="evenodd" d="M6.56423 1.71663C7.45311 1.67635 7.7368 1.66663 9.99999 1.66663C12.2632 1.66663 12.5469 1.67635 13.4358 1.71663C14.7906 1.77843 15.9799 2.11038 16.9347 3.06524C17.8899 4.02045 18.2215 5.21003 18.2833 6.5642C18.3236 7.45308 18.3333 7.73676 18.3333 9.99996C18.3333 12.2632 18.3236 12.5468 18.2833 13.4357C18.2215 14.7906 17.8896 15.9798 16.9347 16.9347C15.9795 17.8899 14.7896 18.2215 13.4358 18.2833C12.5469 18.3236 12.2632 18.3333 9.99999 18.3333C7.7368 18.3333 7.45311 18.3236 6.56423 18.2833C5.20936 18.2215 4.02013 17.8895 3.06527 16.9347C2.11006 15.9795 1.77846 14.7899 1.71666 13.4357C1.67638 12.5468 1.66666 12.2632 1.66666 9.99996C1.66666 7.73676 1.67638 7.45308 1.71666 6.5642C1.77846 5.20933 2.11041 4.0201 3.06527 3.06524C4.02048 2.11003 5.21006 1.77843 6.56423 1.71663ZM10 4.4444C8.49136 4.4444 8.30213 4.45065 7.70942 4.47773C6.80664 4.51905 6.01359 4.74023 5.37678 5.37669C4.74032 6.01315 4.51914 6.8062 4.47782 7.70933C4.45074 8.30204 4.44449 8.49127 4.44449 9.99995C4.44449 11.5086 4.45074 11.6979 4.47782 12.2906C4.51914 13.1934 4.74032 13.9864 5.37678 14.6232C6.01324 15.2597 6.80629 15.4809 7.70942 15.5222C8.30213 15.5493 8.49136 15.5555 10 15.5555C11.5087 15.5555 11.698 15.5493 12.2907 15.5222C13.1934 15.4809 13.9865 15.2597 14.6233 14.6232C15.2598 13.9868 15.4809 13.1937 15.5223 12.2906C15.5493 11.6979 15.5556 11.5086 15.5556 9.99995C15.5556 8.49127 15.5493 8.30204 15.5223 7.70933C15.4809 6.80655 15.2598 6.01349 14.6233 5.37669C13.9868 4.74023 13.1938 4.51905 12.2907 4.47773C11.698 4.45065 11.5087 4.4444 10 4.4444ZM10.0001 5.44543C11.4834 5.44543 11.6591 5.45099 12.2448 5.47772C12.8771 5.50654 13.4639 5.63328 13.9153 6.08467C14.3667 6.53606 14.4935 7.12286 14.5223 7.75515C14.549 8.34092 14.5546 8.51661 14.5546 9.99995C14.5546 11.4833 14.549 11.659 14.5223 12.2447C14.4935 12.877 14.3667 13.4638 13.9153 13.9152C13.4639 14.3666 12.8771 14.4933 12.2448 14.5222C11.6591 14.5489 11.4834 14.5545 10.0001 14.5545C8.51672 14.5545 8.34103 14.5489 7.75527 14.5222C7.12297 14.4933 6.53617 14.3666 6.08478 13.9152C5.63339 13.4638 5.50665 12.877 5.47783 12.2447C5.4511 11.659 5.44554 11.4833 5.44554 9.99995C5.44554 8.51661 5.4511 8.34092 5.47783 7.75515C5.50665 7.12286 5.63339 6.53606 6.08478 6.08467C6.53617 5.63328 7.12297 5.50654 7.75527 5.47772C8.34103 5.45099 8.51672 5.44543 10.0001 5.44543ZM7.14713 9.99996C7.14713 8.42461 8.42422 7.14718 9.99991 7.14718C11.5756 7.14718 12.8527 8.42461 12.8527 9.99996C12.8527 11.5753 11.5753 12.8527 9.99991 12.8527C8.42456 12.8527 7.14713 11.5753 7.14713 9.99996ZM8.14819 9.99995C8.14819 11.0225 8.97701 11.8517 9.99992 11.8517C11.0228 11.8517 11.8517 11.0229 11.8517 9.99995C11.8517 8.97738 11.0228 8.14822 9.99992 8.14822C8.97735 8.14822 8.14819 8.97704 8.14819 9.99995ZM12.9656 7.701C13.3338 7.701 13.6323 7.40253 13.6323 7.03434C13.6323 6.66615 13.3338 6.36767 12.9656 6.36767C12.5974 6.36767 12.2989 6.66615 12.2989 7.03434C12.2989 7.40253 12.5974 7.701 12.9656 7.701Z" fill="#E02D69"/>
</svg>
