<svg width="20" height="20" viewBox="0 0 20 20" fill="none" xmlns="http://www.w3.org/2000/svg">
<path d="M12.625 7.00003C11.3351 6.9956 10.0963 7.50436 9.18184 8.41415C8.26736 9.32395 7.75224 10.5601 7.75003 11.85V16.75C7.75003 16.9489 7.82905 17.1397 7.9697 17.2804C8.11035 17.421 8.30112 17.5 8.50003 17.5H10.25C10.6642 17.5 11 17.1642 11 16.75V11.85C10.9997 11.3906 11.1949 10.9527 11.5368 10.6458C11.8786 10.3389 12.335 10.192 12.7917 10.2417C13.63 10.3473 14.2567 11.0635 14.25 11.9084V16.75C14.25 17.1642 14.5858 17.5 15 17.5H16.75C17.1642 17.5 17.5 17.1642 17.5 16.75V11.85C17.4978 10.5601 16.9827 9.32395 16.0682 8.41415C15.1537 7.50436 13.915 6.9956 12.625 7.00003Z" fill="#007EBB"/>
<rect x="2.5" y="7.75" width="3.75" height="9.75" rx="0.9" fill="#007EBB"/>
<circle cx="4.375" cy="4.375" r="1.875" fill="#007EBB"/>
</svg>
