<svg width="20" height="20" viewBox="0 0 20 20" fill="none" xmlns="http://www.w3.org/2000/svg">
<path d="M6.73329 16.6667C9.2228 16.75 11.6402 15.823 13.4357 14.0965C15.2312 12.37 16.2523 9.99086 16.2666 7.5C16.8313 6.80117 17.2507 5.99652 17.5 5.13333C17.538 4.99402 17.4907 4.84537 17.3792 4.75364C17.2676 4.6619 17.1127 4.64416 16.9833 4.70833C16.3775 4.99994 15.6532 4.87251 15.1833 4.39166C14.5923 3.74444 13.7643 3.36413 12.8883 3.33744C12.0122 3.31075 11.1626 3.63995 10.5333 4.25C9.66576 5.09016 9.30207 6.32356 9.57496 7.5C6.78329 7.66667 4.86663 6.34166 3.33329 4.525C3.23917 4.4184 3.09092 4.37756 2.95548 4.4209C2.82005 4.46424 2.72305 4.58356 2.70829 4.725C2.11006 8.04347 3.63902 11.3839 6.54163 13.1C5.59133 14.1899 4.2568 14.8706 2.81663 15C2.65844 15.0262 2.53444 15.1501 2.50808 15.3083C2.48172 15.4665 2.55884 15.6239 2.69996 15.7C3.9529 16.3261 5.33265 16.6568 6.73329 16.6667Z" fill="#00AAEC"/>
</svg>
