<svg width="44" height="44" viewBox="0 0 44 44" fill="none" xmlns="http://www.w3.org/2000/svg">
<g filter="url(#filter0_d_811_238)">
<path d="M31.9397 12.0238C29.2797 9.45248 25.7798 8 22.0523 8C11.3541 8 4.63654 19.5907 9.97864 28.8107L8 35.9997L15.3907 34.0723C18.6107 35.8118 21.2485 35.6578 22.0593 35.7605C34.4643 35.7605 40.6394 20.7527 31.9222 12.0693L31.9397 12.0238Z" fill="#ECEFF1"/>
</g>
<path d="M22.0779 33.3761L22.0709 33.375H22.0522C18.3399 33.375 15.9681 31.6168 15.7348 31.5153L11.3599 32.6528L12.5323 28.4004L12.2535 27.9629C11.0985 26.1242 10.4849 24.0067 10.4849 21.8263C10.4849 11.5679 23.0205 6.43813 30.2748 13.6889C37.5115 20.8638 32.4308 33.3761 22.0779 33.3761Z" fill="#4CAF50"/>
<path d="M28.4248 24.6904L28.4143 24.7779C28.0632 24.6029 26.3529 23.7665 26.0344 23.651C25.3192 23.3861 25.521 23.609 24.1479 25.1816C23.9437 25.4091 23.7407 25.4266 23.3942 25.2691C23.0442 25.0941 21.9207 24.7266 20.5908 23.5366C19.5548 22.6091 18.8594 21.4716 18.6541 21.1217C18.3123 20.5313 19.0274 20.4473 19.6784 19.2153C19.7951 18.9703 19.7356 18.7778 19.6493 18.604C19.5618 18.429 18.8653 16.714 18.5736 16.0304C18.2936 15.3491 18.0055 15.4354 17.7896 15.4354C17.1176 15.3771 16.6265 15.3864 16.1936 15.8367C14.3107 17.9064 14.7855 20.0413 16.3966 22.3116C19.5629 26.4556 21.2499 27.2186 24.3345 28.2779C25.1675 28.5427 25.927 28.5054 26.5278 28.4191C27.1975 28.3129 28.5893 27.5779 28.8798 26.7554C29.1773 25.9329 29.1773 25.2504 29.0898 25.0929C29.0035 24.9354 28.7748 24.8479 28.4248 24.6904Z" fill="#FAFAFA"/>
<defs>
<filter id="filter0_d_811_238" x="0" y="0" width="44" height="43.9995" filterUnits="userSpaceOnUse" color-interpolation-filters="sRGB">
<feFlood flood-opacity="0" result="BackgroundImageFix"/>
<feColorMatrix in="SourceAlpha" type="matrix" values="0 0 0 0 0 0 0 0 0 0 0 0 0 0 0 0 0 0 127 0" result="hardAlpha"/>
<feOffset/>
<feGaussianBlur stdDeviation="4"/>
<feColorMatrix type="matrix" values="0 0 0 0 0 0 0 0 0 0 0 0 0 0 0 0 0 0 0.3 0"/>
<feBlend mode="normal" in2="BackgroundImageFix" result="effect1_dropShadow_811_238"/>
<feBlend mode="normal" in="SourceGraphic" in2="effect1_dropShadow_811_238" result="shape"/>
</filter>
</defs>
</svg>
