<svg width="29" height="28" viewBox="0 0 29 28" fill="none" xmlns="http://www.w3.org/2000/svg">
<path fill-rule="evenodd" clip-rule="evenodd" d="M20.8153 8.75H19.3003V7.235C19.3003 6.83 18.9703 6.5 18.5653 6.5H18.5428C18.1303 6.5 17.8003 6.83 17.8003 7.235V8.75H16.2928C15.8878 8.75 15.5578 9.08 15.5503 9.485V9.5075C15.5503 9.92 15.8803 10.25 16.2928 10.25H17.8003V11.7575C17.8003 12.1625 18.1303 12.5 18.5428 12.4925H18.5653C18.9703 12.4925 19.3003 12.1625 19.3003 11.7575V10.25H20.8153C21.2203 10.25 21.5503 9.92 21.5503 9.515V9.485C21.5503 9.08 21.2203 8.75 20.8153 8.75ZM17.0503 11.7575V11H16.2928C15.8953 11 15.5203 10.8425 15.2353 10.565C14.9578 10.28 14.8003 9.905 14.8003 9.485C14.8003 9.215 14.8753 8.9675 15.0028 8.75H8.80029C7.97529 8.75 7.30029 9.425 7.30029 10.25V19.25C7.30029 20.075 7.97529 20.75 8.80029 20.75H17.8003C18.6253 20.75 19.3003 20.075 19.3003 19.25V13.04C19.0753 13.1675 18.8203 13.25 18.5353 13.25C17.7178 13.2425 17.0503 12.575 17.0503 11.7575ZM9.55034 19.25H17.0203C17.3353 19.25 17.5078 18.89 17.3128 18.6425L15.1003 15.8825C14.9503 15.6875 14.6578 15.695 14.5078 15.89L12.5503 18.5L11.3503 16.6925C11.2003 16.4825 10.8928 16.4675 10.7353 16.6775L9.25034 18.65C9.06284 18.8975 9.24284 19.25 9.55034 19.25Z" fill="#637381"/>
</svg>
