<svg width="29" height="28" viewBox="0 0 29 28" fill="none" xmlns="http://www.w3.org/2000/svg">
<path fill-rule="evenodd" clip-rule="evenodd" d="M14.0503 6.5C18.1925 6.5 21.5503 9.85775 21.5503 14C21.5503 18.1423 18.1925 21.5 14.0503 21.5C9.90804 21.5 6.55029 18.1423 6.55029 14C6.55029 9.85775 9.90804 6.5 14.0503 6.5ZM14.0503 8C10.7366 8 8.05029 10.6863 8.05029 14C8.05029 17.3137 10.7366 20 14.0503 20C17.364 20 20.0503 17.3137 20.0503 14C20.0503 10.6863 17.364 8 14.0503 8ZM14.0503 18.5C16.1214 18.5 17.8003 16.8211 17.8003 14.75H10.3003C10.3003 16.8211 11.9792 18.5 14.0503 18.5Z" fill="#637381"/>
</svg>
