<svg width="36" height="36" viewBox="0 0 36 36" fill="none" xmlns="http://www.w3.org/2000/svg">
<path fill-rule="evenodd" clip-rule="evenodd" d="M12.2402 10.0834H24.25C25.6713 10.0834 26.8235 11.2356 26.8235 12.6569V21.2353C26.8235 22.6567 25.6713 23.8089 24.25 23.8089H15.2855C15.1199 23.8025 14.9561 23.8442 14.8137 23.929L10.962 26.2623C10.8296 26.3409 10.6784 26.3823 10.5245 26.3824C10.3771 26.3819 10.2323 26.3435 10.1041 26.2709C9.83435 26.1192 9.66716 25.834 9.66663 25.5245V12.6569C9.66663 11.2356 10.8188 10.0834 12.2402 10.0834ZM13.9558 16.9461C13.9558 17.4199 14.3398 17.804 14.8136 17.804C15.2874 17.804 15.6715 17.4199 15.6715 16.9461C15.6715 16.4723 15.2874 16.0883 14.8136 16.0883C14.3398 16.0883 13.9558 16.4723 13.9558 16.9461ZM18.2451 17.804C17.7713 17.804 17.3872 17.4199 17.3872 16.9461C17.3872 16.4723 17.7713 16.0883 18.2451 16.0883C18.7188 16.0883 19.1029 16.4723 19.1029 16.9461C19.1029 17.4199 18.7188 17.804 18.2451 17.804ZM20.8185 16.9461C20.8185 17.4199 21.2026 17.804 21.6764 17.804C22.1501 17.804 22.5342 17.4199 22.5342 16.9461C22.5342 16.4723 22.1501 16.0883 21.6764 16.0883C21.2026 16.0883 20.8185 16.4723 20.8185 16.9461Z" fill="#637381"/>
</svg>
