<svg width="36" height="36" viewBox="0 0 36 36" fill="none" xmlns="http://www.w3.org/2000/svg">
<path d="M23.0001 20.5C22.3454 20.5005 21.7171 20.7578 21.2501 21.2166L14.6667 18.2833V18V17.725L21.2501 14.7833C22.1003 15.6167 23.4202 15.7349 24.405 15.0658C25.3897 14.3968 25.7661 13.1262 25.3046 12.0287C24.843 10.9313 23.6716 10.3116 22.5047 10.5475C21.3378 10.7834 20.4991 11.8094 20.5001 13V13.2833L13.9167 16.2166C12.9359 15.253 11.3611 15.2623 10.3917 16.2374C9.42233 17.2125 9.42233 18.7874 10.3917 19.7625C11.3611 20.7376 12.9359 20.7469 13.9167 19.7833L20.5001 22.725V23C20.5001 24.3807 21.6194 25.5 23.0001 25.5C24.3808 25.5 25.5001 24.3807 25.5001 23C25.5001 21.6192 24.3808 20.5 23.0001 20.5Z" fill="#637381"/>
</svg>
