<svg width="20" height="20" viewBox="0 0 20 20" fill="none" xmlns="http://www.w3.org/2000/svg">
<path fill-rule="evenodd" clip-rule="evenodd" d="M14.1667 17.5H5.83334V5.83333H6.66668V4.58333C6.66668 3.43274 7.59942 2.5 8.75001 2.5H11.25C12.4006 2.5 13.3333 3.43274 13.3333 4.58333V5.83333H14.1667V17.5ZM8.75001 4.16667C8.51989 4.16667 8.33334 4.35321 8.33334 4.58333V5.83333H11.6667V4.58333C11.6667 4.35321 11.4801 4.16667 11.25 4.16667H8.75001Z" fill="#212B36"/>
<path d="M15.8333 5.83331V17.5C17.2141 17.5 18.3333 16.3807 18.3333 15V8.33331C18.3333 6.9526 17.2141 5.83331 15.8333 5.83331Z" fill="#212B36"/>
<path d="M4.16666 5.83331C2.78594 5.83331 1.66666 6.9526 1.66666 8.33331V15C1.66666 16.3807 2.78594 17.5 4.16666 17.5V5.83331Z" fill="#212B36"/>
</svg>
