<svg width="20" height="20" viewBox="0 0 20 20" fill="none" xmlns="http://www.w3.org/2000/svg">
<circle cx="10" cy="7.91669" r="1.25" fill="#212B36"/>
<path fill-rule="evenodd" clip-rule="evenodd" d="M3.33334 8.26669C3.3699 4.61085 6.34399 1.6665 10 1.66669C13.656 1.6665 16.6301 4.61085 16.6667 8.26669C16.6667 12.8334 10.8333 17.9167 10.5417 18.1334C10.2298 18.4001 9.7702 18.4001 9.45834 18.1334L9.45698 18.1322C9.18789 17.899 3.33334 12.8254 3.33334 8.26669ZM7.08334 7.91669C7.08334 9.52752 8.38918 10.8334 10 10.8334C10.7736 10.8334 11.5154 10.5261 12.0624 9.97908C12.6094 9.4321 12.9167 8.69024 12.9167 7.91669C12.9167 6.30586 11.6108 5.00002 10 5.00002C8.38918 5.00002 7.08334 6.30586 7.08334 7.91669Z" fill="#212B36"/>
</svg>
