<svg width="22" height="22" viewBox="0 0 22 22" fill="none" xmlns="http://www.w3.org/2000/svg">
<path fill-rule="evenodd" clip-rule="evenodd" d="M15.5688 1.83331H6.41667C3.89947 1.83331 1.83333 3.89945 1.83333 6.4312V15.5833C1.83333 18.1005 3.89947 20.1666 6.41667 20.1666H15.5688C18.1005 20.1666 20.1667 18.1005 20.1667 15.5688V6.4312C20.1667 3.89945 18.1005 1.83331 15.5688 1.83331ZM16.7037 13.0952C16.6891 15.0741 15.0595 16.6746 13.0661 16.6746H8.90476C6.91137 16.6746 5.32539 15.0886 5.32539 13.1098V8.89019C5.32539 6.91135 6.91137 5.32537 8.90476 5.32537H11.4365C12.3677 5.32537 13.7354 6.21294 14.2302 7.27511C14.2515 7.32264 14.2718 7.36357 14.2911 7.40266C14.39 7.60289 14.465 7.75474 14.5503 8.49733L14.562 8.58919C14.6133 8.99396 14.6516 9.29612 14.8413 9.4722C15.0048 9.61938 15.4119 9.62871 15.7759 9.63705C16.0596 9.64355 16.3171 9.64945 16.4127 9.71955L16.5727 9.8505L16.6746 10.0542L16.7037 10.1997V13.0952ZM10.9563 8.23543H8.94841C8.5701 8.23543 8.25 8.51188 8.25 8.89019C8.25 9.2685 8.5701 9.54495 8.94841 9.54495H10.9563C11.3347 9.54495 11.6548 9.2685 11.6548 8.89019C11.6548 8.51188 11.3492 8.23543 10.9563 8.23543ZM13.037 12.3095H8.94841C8.5701 12.3095 8.25 12.6587 8.25 13.037C8.25 13.4153 8.55555 13.7645 8.94841 13.7645H13.037C13.4153 13.7645 13.7209 13.4153 13.7209 13.037C13.7209 12.6587 13.4153 12.3095 13.037 12.3095Z" fill="#637381"/>
</svg>
