<svg width="22" height="22" viewBox="0 0 22 22" fill="none" xmlns="http://www.w3.org/2000/svg">
<path opacity="0.48" fill-rule="evenodd" clip-rule="evenodd" d="M13.352 3.34797C13.352 2.51439 14.0337 1.83331 14.8672 1.83331C15.7008 1.83331 16.3849 2.51439 16.3849 3.34797C16.3849 4.18156 15.7008 4.86322 14.8672 4.86322C14.0337 4.86322 13.352 4.18156 13.352 3.34797ZM7.41825 5.47192C7.81508 4.07366 9.10071 3.0448 10.624 3.0448C12.1473 3.0448 13.433 4.07366 13.8298 5.47192H7.41825Z" fill="#637381"/>
<path fill-rule="evenodd" clip-rule="evenodd" d="M2.74225 4.25928C2.46429 4.25928 2.21854 4.37379 2.06189 4.55001C1.90525 4.72624 1.83333 4.94861 1.83333 5.1676C1.83333 5.38659 1.90525 5.60896 2.06189 5.78519C2.21854 5.9614 2.46429 6.07651 2.74225 6.07651H4.41855L6.09427 15.0437C6.17431 15.4716 6.55382 15.7779 6.98542 15.7779H16.6868C17.1029 15.7779 17.4758 15.4938 17.5708 15.0822L19.3905 7.19977C19.5205 6.63657 19.0892 6.07829 18.5064 6.07829H6.27605L6.05874 4.99115C5.97449 4.56842 5.59922 4.26043 5.16818 4.25928H2.74225ZM8.80446 16.3842C7.97087 16.3842 7.2898 17.0659 7.2898 17.8995C7.28979 18.7331 7.97087 19.4165 8.80446 19.4165C9.63804 19.4165 10.3197 18.7331 10.3197 17.8995C10.3197 17.0659 9.63804 16.3842 8.80446 16.3842ZM13.352 17.8995C13.352 17.0659 14.0336 16.3842 14.8672 16.3842C15.7008 16.3842 16.3848 17.0659 16.3849 17.8995C16.3849 18.7331 15.7008 19.4165 14.8672 19.4165C14.0336 19.4165 13.352 18.7331 13.352 17.8995Z" fill="#637381"/>
</svg>
