<svg width="16" height="16" viewBox="0 0 16 16" fill="none" xmlns="http://www.w3.org/2000/svg">
<circle cx="8" cy="6.33325" r="1" fill="#637381"/>
<path fill-rule="evenodd" clip-rule="evenodd" d="M2.66666 6.61325C2.6959 3.68858 5.07517 1.33311 7.99999 1.33325C10.9248 1.33311 13.3041 3.68858 13.3333 6.61325C13.3333 10.2666 8.66666 14.3333 8.43332 14.5066C8.18384 14.72 7.81614 14.72 7.56666 14.5066L7.56557 14.5056C7.35023 14.319 2.66666 10.2602 2.66666 6.61325ZM5.66666 6.33325C5.66666 7.62192 6.71133 8.66659 7.99999 8.66659C8.61883 8.66659 9.21232 8.42075 9.64991 7.98317C10.0875 7.54558 10.3333 6.95209 10.3333 6.33325C10.3333 5.04459 9.28865 3.99992 7.99999 3.99992C6.71133 3.99992 5.66666 5.04459 5.66666 6.33325Z" fill="#637381"/>
</svg>
