<svg width="28" height="28" viewBox="0 0 28 28" fill="none" xmlns="http://www.w3.org/2000/svg">
<path d="M14 21.5C11.5781 21.5588 9.56543 19.6467 9.5 17.225V9.59751C9.54502 7.84698 10.9968 6.46226 12.7475 6.50001C14.5011 6.45806 15.9575 7.84399 16.0025 9.59751V17.2325C15.9378 18.2889 15.0621 19.1125 14.0037 19.1125C12.9454 19.1125 12.0697 18.2889 12.005 17.2325V10.19C12.005 9.7758 12.3408 9.44001 12.755 9.44001C13.1692 9.44001 13.505 9.7758 13.505 10.19V17.2325C13.536 17.4844 13.7499 17.6737 14.0037 17.6737C14.2576 17.6737 14.4715 17.4844 14.5025 17.2325V9.59751C14.454 8.67412 13.6714 7.96175 12.7475 8.00001C11.8265 7.96596 11.0485 8.67716 11 9.59751V17.225C11.065 18.8184 12.4064 20.0592 14 20C15.5936 20.0592 16.935 18.8184 17 17.225V9.59751C17 9.1833 17.3358 8.84751 17.75 8.84751C18.1642 8.84751 18.5 9.1833 18.5 9.59751V17.225C18.4346 19.6467 16.4219 21.5588 14 21.5Z" fill="#637381"/>
</svg>
