<svg width="20" height="20" viewBox="0 0 20 20" fill="none" xmlns="http://www.w3.org/2000/svg">
<g clip-path="url(#clip0_11297_92335)">
<path fill-rule="evenodd" clip-rule="evenodd" d="M20 2H12L10.59 0.59C10.21 0.21 9.7 0 9.17 0H4C2.9 0 2.01 0.9 2.01 2L2 14C2 15.1 2.9 16 4 16H20C21.1 16 22 15.1 22 14V4C22 2.9 21.1 2 20 2ZM-1 4C-1.55 4 -2 4.45 -2 5V9H-1.99L-2 18C-2 19.1 -1.1 20 0 20H17C17.55 20 18 19.55 18 19C18 18.45 17.55 18 17 18H1C0.45 18 0 17.55 0 17V5C0 4.45 -0.45 4 -1 4ZM9.11 7.52L5.6 12.2C5.35 12.53 5.59 13 6 12.99H17.99C18.4 12.99 18.64 12.51 18.38 12.18L15.89 8.98C15.69 8.73 15.31 8.72 15.11 8.97L13.01 11.5L9.91 7.51C9.7 7.25 9.31 7.26 9.11 7.52Z" fill="#637381"/>
</g>
<defs>
<clipPath id="clip0_11297_92335">
<rect width="20" height="20" fill="white"/>
</clipPath>
</defs>
</svg>
