<svg width="51" height="23" viewBox="0 0 51 23" fill="none" xmlns="http://www.w3.org/2000/svg">
<path d="M40.205 0.333C39.776 -0.111 39.062 -0.111 38.618 0.333C38.189 0.762 38.189 1.476 38.618 1.904L46.665 9.951L20.111 9.951C19.492 9.952 19 10.444 19 11.063C19 11.682 19.492 12.19 20.111 12.19L46.665 12.19L38.618 20.222C38.189 20.666 38.189 21.381 38.618 21.809C39.062 22.253 39.777 22.253 40.205 21.809L50.157 11.857C50.601 11.428 50.601 10.714 50.157 10.286L40.205 0.333Z" fill="url(#paint0_linear_1_17929)"/>
<rect x="6" y="10" width="9" height="2" rx="1" fill="url(#paint1_linear_1_17929)"/>
<rect y="10" width="2" height="2" rx="1" fill="url(#paint2_linear_1_17929)"/>
<defs>
<linearGradient id="paint0_linear_1_17929" x1="19" y1="11.071" x2="50.49" y2="11.071" gradientUnits="userSpaceOnUse">
<stop stop-color="#472297"/>
<stop offset="1" stop-color="#7449D0"/>
</linearGradient>
<linearGradient id="paint1_linear_1_17929" x1="6" y1="11" x2="15" y2="11" gradientUnits="userSpaceOnUse">
<stop stop-color="#51CB56"/>
</linearGradient>
<linearGradient id="paint2_linear_1_17929" x1="-7.4506e-09" y1="11" x2="2" y2="11" gradientUnits="userSpaceOnUse">
<stop stop-color="#00EFD1"/>
<stop offset="1" stop-color="#00ACEA"/>
</linearGradient>
</defs>
</svg>
