<svg width="1923" height="1907" viewBox="0 0 1923 1907" fill="none" xmlns="http://www.w3.org/2000/svg">
<g opacity="0.1">
<path fill-rule="evenodd" clip-rule="evenodd" d="M1040.54 242.239C890.812 238.356 744.242 285.715 625.091 376.478C505.94 467.241 421.35 595.966 385.322 741.351C349.294 886.737 363.987 1040.07 426.969 1175.96C489.951 1311.86 597.446 1422.18 731.666 1488.66C865.885 1555.15 1018.78 1573.81 1165.05 1541.56C1311.32 1509.32 1442.2 1428.09 1536.02 1311.33C1604.41 1226.22 1650.12 1125.95 1669.88 1019.83C1682.11 954.127 1735.16 899.5 1801.99 899.5C1868.82 899.5 1923.84 953.921 1914.87 1020.15C1893.03 1181.54 1827.64 1334.8 1724.68 1462.93C1596.32 1622.67 1417.27 1733.79 1217.16 1777.91C1017.04 1822.02 807.867 1796.49 624.242 1705.53C440.617 1614.58 293.552 1463.65 207.386 1277.73C121.221 1091.81 101.12 882.039 150.41 683.137C199.7 484.236 315.426 308.127 478.437 183.954C641.447 59.7818 841.97 -5.00966 1046.82 0.302484C1211.14 4.56366 1370.34 53.7284 1507.61 141.382C1563.93 177.35 1569.9 254.505 1526.7 305.498C1483.5 356.492 1407.53 361.659 1349.49 328.524C1255.75 275.004 1149.69 245.069 1040.54 242.239Z" fill="url(#paint0_linear_1_21564)"/>
<path fill-rule="evenodd" clip-rule="evenodd" d="M1040.54 242.239C890.812 238.356 744.242 285.715 625.091 376.478C505.94 467.241 421.35 595.966 385.322 741.351C349.294 886.737 363.987 1040.07 426.969 1175.96C489.951 1311.86 597.446 1422.18 731.666 1488.66C865.885 1555.15 1018.78 1573.81 1165.05 1541.56C1311.32 1509.32 1442.2 1428.09 1536.02 1311.33C1604.41 1226.22 1650.12 1125.95 1669.88 1019.83C1682.11 954.127 1735.16 899.5 1801.99 899.5C1868.82 899.5 1923.84 953.921 1914.87 1020.15C1893.03 1181.54 1827.64 1334.8 1724.68 1462.93C1596.32 1622.67 1417.27 1733.79 1217.16 1777.91C1017.04 1822.02 807.867 1796.49 624.242 1705.53C440.617 1614.58 293.552 1463.65 207.386 1277.73C121.221 1091.81 101.12 882.039 150.41 683.137C199.7 484.236 315.426 308.127 478.437 183.954C641.447 59.7818 841.97 -5.00966 1046.82 0.302484C1211.14 4.56366 1370.34 53.7284 1507.61 141.382C1563.93 177.35 1569.9 254.505 1526.7 305.498C1483.5 356.492 1407.53 361.659 1349.49 328.524C1255.75 275.004 1149.69 245.069 1040.54 242.239Z" fill="url(#paint1_linear_1_21564)"/>
</g>
<circle cx="950.526" cy="1678.53" r="226.025" stroke="white" stroke-width="3"/>
<circle cx="893.929" cy="1583.06" r="115.693" stroke="white" stroke-width="3"/>
<circle cx="893.929" cy="1772.85" r="115.693" stroke="white" stroke-width="3"/>
<circle cx="840.193" cy="1679.1" r="115.693" stroke="white" stroke-width="3"/>
<circle cx="1003.69" cy="1583.06" r="115.693" stroke="white" stroke-width="3"/>
<circle cx="1003.69" cy="1772.85" r="115.693" stroke="white" stroke-width="3"/>
<circle cx="949.955" cy="1679.1" r="115.693" stroke="white" stroke-width="3"/>
<circle cx="1060.85" cy="1679.1" r="115.693" stroke="white" stroke-width="3"/>
<circle cx="411.526" cy="1390.53" r="226.025" stroke="white" stroke-width="3"/>
<circle cx="354.929" cy="1295.06" r="115.693" stroke="white" stroke-width="3"/>
<circle cx="354.929" cy="1484.85" r="115.693" stroke="white" stroke-width="3"/>
<circle cx="301.193" cy="1391.1" r="115.693" stroke="white" stroke-width="3"/>
<circle cx="464.693" cy="1295.06" r="115.693" stroke="white" stroke-width="3"/>
<circle cx="464.693" cy="1484.85" r="115.693" stroke="white" stroke-width="3"/>
<circle cx="410.955" cy="1391.1" r="115.693" stroke="white" stroke-width="3"/>
<circle cx="521.854" cy="1391.1" r="115.693" stroke="white" stroke-width="3"/>
<circle cx="1538.53" cy="1497.53" r="226.025" stroke="white" stroke-width="3"/>
<circle cx="1481.93" cy="1402.06" r="115.693" stroke="white" stroke-width="3"/>
<circle cx="1481.93" cy="1591.85" r="115.693" stroke="white" stroke-width="3"/>
<circle cx="1428.19" cy="1498.1" r="115.693" stroke="white" stroke-width="3"/>
<circle cx="1591.69" cy="1402.06" r="115.693" stroke="white" stroke-width="3"/>
<circle cx="1591.69" cy="1591.85" r="115.693" stroke="white" stroke-width="3"/>
<circle cx="1537.96" cy="1498.1" r="115.693" stroke="white" stroke-width="3"/>
<circle cx="1648.85" cy="1498.1" r="115.693" stroke="white" stroke-width="3"/>
<circle cx="227.526" cy="820.525" r="226.025" stroke="white" stroke-width="3"/>
<circle cx="170.929" cy="725.056" r="115.693" stroke="white" stroke-width="3"/>
<circle cx="170.929" cy="914.851" r="115.693" stroke="white" stroke-width="3"/>
<circle cx="117.193" cy="821.097" r="115.693" stroke="white" stroke-width="3"/>
<circle cx="280.693" cy="725.056" r="115.693" stroke="white" stroke-width="3"/>
<circle cx="280.693" cy="914.85" r="115.693" stroke="white" stroke-width="3"/>
<circle cx="226.955" cy="821.096" r="115.693" stroke="white" stroke-width="3"/>
<circle cx="337.854" cy="821.096" r="115.693" stroke="white" stroke-width="3"/>
<defs>
<linearGradient id="paint0_linear_1_21564" x1="124" y1="899.5" x2="1923" y2="899.5" gradientUnits="userSpaceOnUse">
<stop stop-color="#1B9820"/>
<stop offset="1" stop-color="#53C258"/>
</linearGradient>
<linearGradient id="paint1_linear_1_21564" x1="1023.5" y1="0" x2="1023.5" y2="1799" gradientUnits="userSpaceOnUse">
<stop stop-color="white"/>
<stop offset="1" stop-color="white" stop-opacity="0"/>
</linearGradient>
</defs>
</svg>
