<svg width="12" height="9" viewBox="0 0 12 9" fill="none" xmlns="http://www.w3.org/2000/svg">
<path fill-rule="evenodd" clip-rule="evenodd" d="M3.6 0.944397C3.6 0.997066 3.5775 1.04016 3.55 1.04016C3.5225 1.04016 3.5 1.08325 3.5 1.13592C3.5 1.18859 3.4775 1.23169 3.45 1.23169C3.4225 1.23169 3.4 1.29633 3.4 1.37533C3.4 1.45434 3.3775 1.51898 3.35 1.51898C3.3225 1.51898 3.3 1.58362 3.3 1.66262C3.3 1.74163 3.2775 1.80627 3.25 1.80627C3.2225 1.80627 3.2 1.84936 3.2 1.90203C3.2 1.9547 3.1775 1.99779 3.15 1.99779C3.1225 1.99779 3.1 2.06243 3.1 2.14144C3.1 2.22044 3.0775 2.28508 3.05 2.28508C3.0225 2.28508 3 2.32818 3 2.38085C3 2.43352 2.9775 2.47661 2.95 2.47661C2.9225 2.47661 2.9 2.54125 2.9 2.62026C2.9 2.69926 2.8775 2.7639 2.85 2.7639C2.8225 2.7639 2.8 2.80699 2.8 2.85966C2.8 2.91233 2.7775 2.95543 2.75 2.95543C2.7225 2.95543 2.7 3.02007 2.7 3.09907C2.7 3.17808 2.6775 3.24272 2.65 3.24272C2.6225 3.24272 2.6 3.28581 2.6 3.33848C2.6 3.39115 2.5775 3.43425 2.55 3.43425C2.5225 3.43425 2.5 3.49889 2.5 3.57789C2.5 3.65689 2.4775 3.72153 2.45 3.72153C2.4225 3.72153 2.4 3.76463 2.4 3.8173C2.4 3.86997 2.3775 3.91306 2.35 3.91306C2.3225 3.91306 2.3 3.9777 2.3 4.05671C2.3 4.13571 2.2775 4.20035 2.25 4.20035C2.2225 4.20035 2.2 4.24345 2.2 4.29612C2.2 4.34879 2.1775 4.39188 2.15 4.39188C2.1225 4.39188 2.1 4.45652 2.1 4.53552C2.1 4.61453 2.0775 4.67917 2.05 4.67917C2.0225 4.67917 2 4.72226 2 4.77493C2 4.8276 1.9775 4.8707 1.95 4.8707C1.9225 4.8707 1.9 4.93534 1.9 5.01434C1.9 5.09335 1.8775 5.15799 1.85 5.15799C1.8225 5.15799 1.8 5.20108 1.8 5.25375C1.8 5.30642 1.7775 5.34951 1.75 5.34951C1.7225 5.34951 1.7 5.41415 1.7 5.49316C1.7 5.57216 1.6775 5.6368 1.65 5.6368C1.6225 5.6368 1.6 5.6799 1.6 5.73257C1.6 5.78524 1.5775 5.82833 1.55 5.82833C1.5225 5.82833 1.5 5.89297 1.5 5.97197C1.5 6.05098 1.4775 6.11562 1.45 6.11562C1.4225 6.11562 1.4 6.18026 1.4 6.25927C1.4 6.33827 1.3775 6.40291 1.35 6.40291C1.3225 6.40291 1.3 6.446 1.3 6.49867C1.3 6.55134 1.2775 6.59444 1.25 6.59444C1.2225 6.59444 1.2 6.65908 1.2 6.73808C1.2 6.81709 1.1775 6.88173 1.15 6.88173C1.1225 6.88173 1.1 6.92482 1.1 6.97749C1.1 7.03016 1.0775 7.07325 1.05 7.07325C1.0225 7.07325 1 7.13789 1 7.2169C1 7.2959 0.9775 7.36054 0.95 7.36054C0.9225 7.36054 0.9 7.3944 0.9 7.43577C0.9 7.59411 0.76785 7.64783 0.37855 7.64783H0V8.12665V8.60547H2.1H4.2V8.12665V7.64783H3.9C3.63335 7.64783 3.6 7.6372 3.6 7.55207C3.6 7.4994 3.6225 7.45631 3.65 7.45631C3.6775 7.45631 3.7 7.39167 3.7 7.31266C3.7 7.23366 3.7225 7.16902 3.75 7.16902C3.7775 7.16902 3.8 7.10438 3.8 7.02537C3.8 6.94637 3.8225 6.88173 3.85 6.88173C3.8775 6.88173 3.9 6.81709 3.9 6.73808C3.9 6.65908 3.9225 6.59444 3.95 6.59444C3.9775 6.59444 4 6.5298 4 6.45079C4 6.37179 4.0225 6.30715 4.05 6.30715C4.0775 6.30715 4.1 6.25175 4.1 6.18404C4.1 6.11629 4.13375 6.02857 4.175 5.98907C4.24165 5.92524 4.25835 5.92524 4.325 5.98907C4.36625 6.02857 4.4 6.09474 4.4 6.13616C4.4 6.17753 4.4225 6.21138 4.45 6.21138C4.4775 6.21138 4.5 6.24974 4.5 6.29657C4.5 6.34344 4.545 6.41282 4.6 6.45079C4.655 6.48876 4.7 6.55814 4.7 6.60502C4.7 6.65185 4.7225 6.6902 4.75 6.6902C4.7775 6.6902 4.8 6.72855 4.8 6.77538C4.8 6.82226 4.845 6.89164 4.9 6.92961C4.955 6.96758 5 7.03696 5 7.08384C5 7.13066 5.0225 7.16902 5.05 7.16902C5.0775 7.16902 5.1 7.20737 5.1 7.2542C5.1 7.30107 5.145 7.37046 5.2 7.40843C5.255 7.4464 5.3 7.51578 5.3 7.56265C5.3 7.60948 5.3225 7.64783 5.35 7.64783C5.3775 7.64783 5.4 7.68619 5.4 7.73302C5.4 7.77989 5.445 7.84927 5.5 7.88724C5.555 7.92521 5.6 7.99459 5.6 8.04147C5.6 8.0883 5.6225 8.12665 5.65 8.12665C5.6775 8.12665 5.7 8.165 5.7 8.21183C5.7 8.25871 5.745 8.32809 5.8 8.36606C5.855 8.40403 5.9 8.47341 5.9 8.52029C5.9 8.57353 5.93745 8.60547 6 8.60547C6.06665 8.60547 6.1 8.57353 6.1 8.50971C6.1 8.45704 6.1225 8.41394 6.15 8.41394C6.1775 8.41394 6.2 8.37559 6.2 8.32876C6.2 8.28188 6.245 8.2125 6.3 8.17453C6.355 8.13656 6.4 8.06718 6.4 8.02031C6.4 7.97348 6.4225 7.93512 6.45 7.93512C6.4775 7.93512 6.5 7.89677 6.5 7.84994C6.5 7.80307 6.545 7.73369 6.6 7.69572C6.655 7.65775 6.7 7.59311 6.7 7.55207C6.7 7.51104 6.745 7.4464 6.8 7.40843C6.855 7.37046 6.9 7.30107 6.9 7.2542C6.9 7.20737 6.9225 7.16902 6.95 7.16902C6.9775 7.16902 7 7.13066 7 7.08384C7 7.03696 7.045 6.96758 7.1 6.92961C7.155 6.89164 7.2 6.82226 7.2 6.77538C7.2 6.72855 7.2225 6.6902 7.25 6.6902C7.2775 6.6902 7.3 6.65185 7.3 6.60502C7.3 6.55814 7.345 6.48876 7.4 6.45079C7.455 6.41282 7.5 6.34344 7.5 6.29657C7.5 6.24974 7.5225 6.21138 7.55 6.21138C7.5775 6.21138 7.6 6.17753 7.6 6.13616C7.6 6.06357 7.71275 5.92409 7.77145 5.92409C7.78715 5.92409 7.8 5.96719 7.8 6.01986C7.8 6.07253 7.8225 6.11562 7.85 6.11562C7.8775 6.11562 7.9 6.15871 7.9 6.21138C7.9 6.26405 7.9225 6.30715 7.95 6.30715C7.9775 6.30715 8 6.37179 8 6.45079C8 6.5298 8.0225 6.59444 8.05 6.59444C8.0775 6.59444 8.1 6.65908 8.1 6.73808C8.1 6.81709 8.1225 6.88173 8.15 6.88173C8.1775 6.88173 8.2 6.94637 8.2 7.02537C8.2 7.10438 8.2225 7.16902 8.25 7.16902C8.2775 7.16902 8.3 7.23189 8.3 7.30869C8.3 7.38549 8.3279 7.45722 8.36205 7.46813C8.4072 7.48255 8.40135 7.50974 8.34065 7.56787C8.287 7.61925 8.1754 7.64783 8.02855 7.64783H7.8V8.12665V8.60547H9.9H12V8.12665V7.64783H11.6214C11.2321 7.64783 11.1 7.59411 11.1 7.43577C11.1 7.3944 11.0775 7.36054 11.05 7.36054C11.0225 7.36054 11 7.2959 11 7.2169C11 7.13789 10.9775 7.07325 10.95 7.07325C10.9225 7.07325 10.9 7.03016 10.9 6.97749C10.9 6.92482 10.8775 6.88173 10.85 6.88173C10.8225 6.88173 10.8 6.81709 10.8 6.73808C10.8 6.65908 10.7775 6.59444 10.75 6.59444C10.7225 6.59444 10.7 6.55134 10.7 6.49867C10.7 6.446 10.6775 6.40291 10.65 6.40291C10.6225 6.40291 10.6 6.33827 10.6 6.25927C10.6 6.18026 10.5775 6.11562 10.55 6.11562C10.5225 6.11562 10.5 6.07253 10.5 6.01986C10.5 5.96719 10.4775 5.92409 10.45 5.92409C10.4225 5.92409 10.4 5.85945 10.4 5.78045C10.4 5.70144 10.3775 5.6368 10.35 5.6368C10.3225 5.6368 10.3 5.59371 10.3 5.54104C10.3 5.48837 10.2775 5.44528 10.25 5.44528C10.2225 5.44528 10.2 5.38064 10.2 5.30163C10.2 5.22263 10.1775 5.15799 10.15 5.15799C10.1225 5.15799 10.1 5.11489 10.1 5.06222C10.1 5.00955 10.0775 4.96646 10.05 4.96646C10.0225 4.96646 10 4.90182 10 4.82281C10 4.74381 9.9775 4.67917 9.95 4.67917C9.9225 4.67917 9.9 4.63608 9.9 4.58341C9.9 4.53074 9.8775 4.48764 9.85 4.48764C9.8225 4.48764 9.8 4.423 9.8 4.344C9.8 4.26499 9.7775 4.20035 9.75 4.20035C9.7225 4.20035 9.7 4.13571 9.7 4.05671C9.7 3.9777 9.6775 3.91306 9.65 3.91306C9.6225 3.91306 9.6 3.86997 9.6 3.8173C9.6 3.76463 9.5775 3.72153 9.55 3.72153C9.5225 3.72153 9.5 3.65689 9.5 3.57789C9.5 3.49889 9.4775 3.43425 9.45 3.43425C9.4225 3.43425 9.4 3.39115 9.4 3.33848C9.4 3.28581 9.3775 3.24272 9.35 3.24272C9.3225 3.24272 9.3 3.17808 9.3 3.09907C9.3 3.02007 9.2775 2.95543 9.25 2.95543C9.2225 2.95543 9.2 2.91233 9.2 2.85966C9.2 2.80699 9.1775 2.7639 9.15 2.7639C9.1225 2.7639 9.1 2.69926 9.1 2.62026C9.1 2.54125 9.0775 2.47661 9.05 2.47661C9.0225 2.47661 9 2.43352 9 2.38085C9 2.32818 8.9775 2.28508 8.95 2.28508C8.9225 2.28508 8.9 2.22044 8.9 2.14144C8.9 2.06243 8.8775 1.99779 8.85 1.99779C8.8225 1.99779 8.8 1.9547 8.8 1.90203C8.8 1.84936 8.7775 1.80627 8.75 1.80627C8.7225 1.80627 8.7 1.74163 8.7 1.66262C8.7 1.58362 8.6775 1.51898 8.65 1.51898C8.6225 1.51898 8.6 1.47588 8.6 1.42321C8.6 1.37054 8.5775 1.32745 8.55 1.32745C8.5225 1.32745 8.5 1.26281 8.5 1.18381C8.5 1.1048 8.4775 1.04016 8.45 1.04016C8.4225 1.04016 8.4 0.997066 8.4 0.944397C8.4 0.891727 8.3775 0.848633 8.35 0.848633C8.3225 0.848633 8.3 0.886986 8.3 0.933815C8.3 0.980691 8.255 1.05007 8.2 1.08804C8.145 1.12601 8.1 1.19539 8.1 1.24227C8.1 1.2891 8.0775 1.32745 8.05 1.32745C8.0225 1.32745 8 1.37054 8 1.42321C8 1.47588 7.9775 1.51898 7.95 1.51898C7.9225 1.51898 7.9 1.55733 7.9 1.60416C7.9 1.65103 7.855 1.72042 7.8 1.75839C7.745 1.79636 7.7 1.86574 7.7 1.91261C7.7 1.95944 7.6775 1.99779 7.65 1.99779C7.6225 1.99779 7.6 2.04089 7.6 2.09356C7.6 2.14623 7.5775 2.18932 7.55 2.18932C7.5225 2.18932 7.5 2.22767 7.5 2.2745C7.5 2.32138 7.455 2.39076 7.4 2.42873C7.345 2.4667 7.3 2.53608 7.3 2.58296C7.3 2.62978 7.2775 2.66814 7.25 2.66814C7.2225 2.66814 7.2 2.71123 7.2 2.7639C7.2 2.81657 7.1775 2.85966 7.15 2.85966C7.1225 2.85966 7.1 2.89802 7.1 2.94485C7.1 2.99172 7.055 3.0611 7 3.09907C6.945 3.13704 6.9 3.20642 6.9 3.2533C6.9 3.30013 6.8775 3.33848 6.85 3.33848C6.8225 3.33848 6.8 3.38158 6.8 3.43425C6.8 3.48691 6.7775 3.53001 6.75 3.53001C6.7225 3.53001 6.7 3.56836 6.7 3.61519C6.7 3.66207 6.655 3.73145 6.6 3.76942C6.545 3.80739 6.5 3.87677 6.5 3.92364C6.5 3.97047 6.4775 4.00882 6.45 4.00882C6.4225 4.00882 6.4 4.05192 6.4 4.10459C6.4 4.15726 6.3775 4.20035 6.35 4.20035C6.3225 4.20035 6.3 4.23871 6.3 4.28553C6.3 4.33241 6.255 4.40179 6.2 4.43976C6.145 4.47773 6.1 4.54711 6.1 4.59399C6.1 4.64082 6.06465 4.67917 6.02145 4.67917C5.9204 4.67917 5.8 4.56387 5.8 4.4671C5.8 4.42573 5.7775 4.39188 5.75 4.39188C5.7225 4.39188 5.7 4.34879 5.7 4.29612C5.7 4.24345 5.6775 4.20035 5.65 4.20035C5.6225 4.20035 5.6 4.162 5.6 4.11517C5.6 4.06829 5.555 3.99891 5.5 3.96094C5.445 3.92297 5.4 3.85359 5.4 3.80672C5.4 3.75989 5.3775 3.72153 5.35 3.72153C5.3225 3.72153 5.3 3.67844 5.3 3.62577C5.3 3.5731 5.2775 3.53001 5.25 3.53001C5.2225 3.53001 5.2 3.49165 5.2 3.44483C5.2 3.39795 5.155 3.32857 5.1 3.2906C5.045 3.25263 5 3.18325 5 3.13637C5 3.08954 4.9775 3.05119 4.95 3.05119C4.9225 3.05119 4.9 3.0081 4.9 2.95543C4.9 2.90276 4.8775 2.85966 4.85 2.85966C4.8225 2.85966 4.8 2.82131 4.8 2.77448C4.8 2.72761 4.755 2.65823 4.7 2.62026C4.645 2.58229 4.6 2.51291 4.6 2.46603C4.6 2.4192 4.5775 2.38085 4.55 2.38085C4.5225 2.38085 4.5 2.33775 4.5 2.28508C4.5 2.23241 4.4775 2.18932 4.45 2.18932C4.4225 2.18932 4.4 2.15097 4.4 2.10414C4.4 2.05726 4.355 1.98788 4.3 1.94991C4.245 1.91194 4.2 1.84256 4.2 1.79569C4.2 1.74886 4.1775 1.7105 4.15 1.7105C4.1225 1.7105 4.1 1.66741 4.1 1.61474C4.1 1.56207 4.0775 1.51898 4.05 1.51898C4.0225 1.51898 4 1.48062 4 1.43379C4 1.38692 3.955 1.31754 3.9 1.27957C3.845 1.2416 3.8 1.17222 3.8 1.12534C3.8 1.07851 3.7775 1.04016 3.75 1.04016C3.7225 1.04016 3.7 0.997066 3.7 0.944397C3.7 0.891727 3.6775 0.848633 3.65 0.848633C3.6225 0.848633 3.6 0.891727 3.6 0.944397Z" fill="url(#paint0_linear_1_21518)"/>
<defs>
<linearGradient id="paint0_linear_1_21518" x1="0" y1="4.72705" x2="12" y2="4.72705" gradientUnits="userSpaceOnUse">
<stop stop-color="#472297"/>
<stop offset="1" stop-color="#7449D0"/>
</linearGradient>
</defs>
</svg>
