<svg width="20" height="20" viewBox="0 0 20 20" fill="none" xmlns="http://www.w3.org/2000/svg">
<path fill-rule="evenodd" clip-rule="evenodd" d="M3.75 17.0837L2.5 18.3337V1.66699L3.75 2.91699L5 1.66699L6.25 2.91699L7.5 1.66699L8.75 2.91699L10 1.66699L11.25 2.91699L12.5 1.66699L13.75 2.91699L15 1.66699L16.25 2.91699L17.5 1.66699V18.3337L16.25 17.0837L15 18.3337L13.75 17.0837L12.5 18.3337L11.25 17.0837L10 18.3337L8.75 17.0837L7.5 18.3337L6.25 17.0837L5 18.3337L3.75 17.0837ZM15 5.83366V7.50033H5V5.83366H15ZM5 9.16699V10.8337H15V9.16699H5ZM5 12.5003V14.167H15V12.5003H5Z" fill="#637381"/>
</svg>
