<svg width="20" height="20" viewBox="0 0 20 20" fill="none" xmlns="http://www.w3.org/2000/svg">
<path fill-rule="evenodd" clip-rule="evenodd" d="M15.6001 11.1671L17.1001 12.6754C17.4853 13.067 17.5985 13.6512 17.3877 14.1584C17.1768 14.6656 16.6827 14.9973 16.1334 15.0004H13.3334V15.2837C13.2523 17.0451 11.7617 18.4091 10.0001 18.3337C8.23841 18.4091 6.74777 17.0451 6.66672 15.2837V15.0004H3.86672C3.31742 14.9973 2.82334 14.6656 2.61246 14.1584C2.40157 13.6512 2.51486 13.067 2.90006 12.6754L4.40006 11.1671V7.27539C4.40301 5.6597 5.10159 4.12353 6.31733 3.05936C7.53306 1.99519 9.14819 1.50611 10.7501 1.71706C13.5713 2.14946 15.6413 4.59651 15.6001 7.45039V11.1671ZM9.99999 16.6671C10.8362 16.7261 11.5706 16.1165 11.6667 15.2837V15.0004H8.33333V15.2837C8.42934 16.1165 9.16382 16.7261 9.99999 16.6671Z" fill="#637381"/>
</svg>
