<svg width="20" height="20" viewBox="0 0 20 20" fill="none" xmlns="http://www.w3.org/2000/svg">
<path fill-rule="evenodd" clip-rule="evenodd" d="M5.83331 5C8.00831 5 9.85831 6.39167 10.5416 8.33333H19.1666V11.6667H17.5V15H14.1666V11.6667H10.5416C9.85831 13.6083 8.00831 15 5.83331 15C3.07498 15 0.833313 12.7583 0.833313 10C0.833313 7.24167 3.07498 5 5.83331 5ZM4.16665 10C4.16665 10.9167 4.91665 11.6667 5.83331 11.6667C6.74998 11.6667 7.49998 10.9167 7.49998 10C7.49998 9.08333 6.74998 8.33333 5.83331 8.33333C4.91665 8.33333 4.16665 9.08333 4.16665 10Z" fill="#637381"/>
</svg>
