<svg width="20" height="20" viewBox="0 0 20 20" fill="none" xmlns="http://www.w3.org/2000/svg">
<path d="M15.0001 12.5003C14.3454 12.5009 13.7171 12.7582 13.2501 13.217L6.66674 10.2837V10.0003V9.72532L13.2501 6.78365C14.1003 7.61702 15.4202 7.73524 16.405 7.06621C17.3897 6.39718 17.7661 5.12654 17.3046 4.02912C16.843 2.93169 15.6716 2.31197 14.5047 2.54786C13.3378 2.78375 12.4991 3.80979 12.5001 5.00032V5.28365L5.91674 8.21699C4.93593 7.25338 3.36107 7.26267 2.3917 8.23777C1.42233 9.21288 1.42233 10.7878 2.3917 11.7629C3.36107 12.738 4.93593 12.7473 5.91674 11.7837L12.5001 14.7253V15.0003C12.5001 16.381 13.6194 17.5003 15.0001 17.5003C16.3808 17.5003 17.5001 16.381 17.5001 15.0003C17.5001 13.6196 16.3808 12.5003 15.0001 12.5003Z" fill="#637381"/>
</svg>
