<svg width="22" height="22" viewBox="0 0 22 22" fill="none" xmlns="http://www.w3.org/2000/svg">
<path opacity="0.48" d="M18.6368 1.83334C19.5649 1.83334 20.3173 2.58575 20.3173 3.5139C20.3173 4.44204 19.5649 5.19445 18.6368 5.19445C18.3472 5.19445 18.0748 5.12124 17.837 4.99232L15.0641 8.18197C15.1876 8.41584 15.2574 8.68235 15.2574 8.96518C15.2574 9.89332 14.505 10.6457 13.5769 10.6457C12.6766 10.6457 11.9417 9.93787 11.8983 9.04838L9.87856 8.35309C9.57032 8.72689 9.10365 8.96518 8.58133 8.96518C8.28146 8.96518 7.99994 8.88664 7.75621 8.74901L5.12024 10.9607C5.16989 11.1194 5.19665 11.2882 5.19665 11.4632C5.19665 12.3914 4.44424 13.1438 3.51609 13.1438C2.58795 13.1438 1.83554 12.3914 1.83554 11.4632C1.83554 10.5351 2.58795 9.78265 3.51609 9.78265C3.81942 9.78265 4.10398 9.86302 4.34964 10.0036L6.98012 7.79639C6.92859 7.63503 6.90077 7.46307 6.90077 7.28462C6.90077 6.35648 7.65318 5.60407 8.58133 5.60407C9.47579 5.60407 10.207 6.30285 10.2589 7.18429L12.2903 7.88394C12.5985 7.51749 13.0605 7.28462 13.5769 7.28462C13.7722 7.28462 13.9597 7.31793 14.134 7.37918L17.0393 4.03719C16.9854 3.8725 16.9562 3.6966 16.9562 3.5139C16.9562 2.58575 17.7086 1.83334 18.6368 1.83334Z" fill="#637381"/>
<path d="M19.4792 9.72452C19.9432 9.72452 20.3194 10.1007 20.3194 10.5648V20.4227C20.3194 20.6758 20.1142 20.881 19.8611 20.881H17.4167C17.1635 20.881 16.9583 20.6758 16.9583 20.4227V10.5648C16.9583 10.1007 17.3345 9.72452 17.7986 9.72452H19.4792ZM14.4375 15.6146C14.9016 15.6146 15.2778 15.9908 15.2778 16.4548V20.4227C15.2778 20.6758 15.0726 20.881 14.8194 20.881H12.375C12.1219 20.881 11.9167 20.6758 11.9167 20.4227V16.4548C11.9167 15.9908 12.2929 15.6146 12.7569 15.6146H14.4375ZM9.39583 13.9274C9.85991 13.9274 10.2361 14.3036 10.2361 14.7677V20.4227C10.2361 20.6758 10.0309 20.881 9.77778 20.881H7.33333C7.0802 20.881 6.875 20.6758 6.875 20.4227V14.7677C6.875 14.3036 7.2512 13.9274 7.71528 13.9274H9.39583ZM4.35417 18.2481C4.81824 18.2481 5.19444 18.6243 5.19444 19.0884V20.4227C5.19444 20.6758 4.98924 20.881 4.73611 20.881H2.29167C2.03853 20.881 1.83333 20.6758 1.83333 20.4227V19.0884C1.83333 18.6243 2.20954 18.2481 2.67361 18.2481H4.35417Z" fill="#637381"/>
</svg>
