<svg width="22" height="22" viewBox="0 0 22 22" fill="none" xmlns="http://www.w3.org/2000/svg">
<path d="M18.6816 7.85583L17.5541 9.55167C18.6586 11.7545 18.5829 14.3649 17.3525 16.5H4.64746C3.03092 13.6956 3.44423 10.1631 5.66448 7.80764C7.88473 5.45219 11.3867 4.83102 14.2816 6.27917L15.9775 5.15167C12.4243 2.87323 7.77457 3.31564 4.71483 6.22326C1.65508 9.13089 0.976354 13.752 3.07079 17.4167C3.39631 17.9805 3.99642 18.3294 4.64746 18.3333H17.3433C18.0009 18.3359 18.6095 17.9862 18.9383 17.4167C20.6604 14.4335 20.5648 10.7368 18.6908 7.84667L18.6816 7.85583Z" fill="#637381"/>
<path opacity="0.48" d="M9.70746 14.1258C10.0513 14.4701 10.518 14.6635 11.0045 14.6635C11.4911 14.6635 11.9578 14.4701 12.3016 14.1258L17.49 6.34332L9.70746 11.5317C9.3632 11.8755 9.16977 12.3422 9.16977 12.8287C9.16977 13.3153 9.3632 13.7819 9.70746 14.1258Z" fill="#637381"/>
</svg>
