<svg width="24" height="24" viewBox="0 0 24 24" fill="none" xmlns="http://www.w3.org/2000/svg">
<path d="M16.8125 2.83333H15.6666V1.91666C15.6666 1.41067 15.2569 1 14.75 1C14.2431 1 13.8333 1.41067 13.8333 1.91666V2.83333H6.49999V1.91666C6.49999 1.41067 6.09024 1 5.58332 1C5.07641 1 4.66666 1.41067 4.66666 1.91666V2.83333H3.52083C2.13025 2.83333 1 3.96358 1 5.35416V15.6666C1 17.1828 2.23383 18.4166 3.74999 18.4166H8.33332C8.84023 18.4166 9.24998 18.006 9.24998 17.5C9.24998 16.994 8.84023 16.5833 8.33332 16.5833H3.74999C3.244 16.5833 2.83333 16.1717 2.83333 15.6666V8.33332H17.5C17.5 8.83932 17.9097 9.24998 18.4166 9.24998C18.9235 9.24998 19.3333 8.83932 19.3333 8.33332V5.35416C19.3333 3.96358 18.2031 2.83333 16.8125 2.83333Z" fill="#637381"/>
<path opacity="0.48" d="M17.0416 11.0833C13.7563 11.0833 11.0833 13.7563 11.0833 17.0417C11.0833 20.327 13.7563 23 17.0416 23C20.3269 23 22.9999 20.327 22.9999 17.0417C22.9999 13.7563 20.3269 11.0833 17.0416 11.0833ZM19.7971 16.0379L16.818 19.4754C16.6511 19.6679 16.4119 19.7816 16.158 19.7917C16.147 19.7917 16.136 19.7917 16.125 19.7917C15.882 19.7917 15.6492 19.6954 15.4769 19.5231L13.8727 17.9189C13.5143 17.5605 13.5143 16.9812 13.8727 16.6227C14.2311 16.2643 14.8105 16.2643 15.1689 16.6227L16.0773 17.5312L18.4111 14.838C18.7429 14.4548 19.3223 14.4154 19.7045 14.7454C20.0868 15.0763 20.128 15.6557 19.7971 16.0379Z" fill="#637381"/>
</svg>
