<svg width="16" height="21" viewBox="0 0 16 21" fill="none" xmlns="http://www.w3.org/2000/svg">
<path d="M4.57737 4.63089V7.14682C4.57737 7.45839 4.82958 7.71059 5.14115 7.71059C5.42406 7.71059 5.65852 7.50216 5.69881 7.23017L5.70493 7.14682V4.63089H10.8916V7.14682C10.8916 7.45839 11.1441 7.71059 11.4553 7.71059C11.7386 7.71059 11.9728 7.50216 12.013 7.23017L12.0191 7.14682V4.63089H13.7172C14.3732 4.63089 14.9332 5.1112 15.0446 5.74631L15.0608 5.8753L15.9204 16.7075C15.9873 17.5768 15.6862 18.4405 15.0951 19.0787C14.5493 19.6678 13.7932 20.0254 12.9957 20.0769L12.7956 20.0833H3.80091C2.93082 20.0833 2.0927 19.7169 1.50147 19.0787C0.955762 18.4896 0.657274 17.7084 0.666893 16.9091L0.675753 16.709L1.53569 5.8738C1.5857 5.2209 2.1078 4.69979 2.74949 4.6372L2.87931 4.63089H4.57737ZM8.33403 8.27088C8.12625 8.26788 7.95491 8.43376 7.95187 8.64215V9.33477C6.58485 9.43198 5.65528 10.2765 5.65528 11.4005C5.65528 12.7796 6.82788 13.1624 7.95187 13.4662V15.8965C7.35888 15.8169 6.79993 15.5708 6.34182 15.1856C6.25555 15.117 6.1486 15.0787 6.03803 15.0763C5.75794 15.0957 5.54226 15.3302 5.54585 15.6109C5.54529 15.7336 5.59329 15.8515 5.67955 15.939C6.30717 16.504 7.11402 16.8291 7.95792 16.8564L7.95852 17.5375C7.96824 17.7453 8.14505 17.9057 8.35283 17.8954C8.55759 17.8954 8.72345 17.7295 8.72345 17.5247V16.8443C10.3821 16.7349 11.0504 15.7264 11.0504 14.6571C11.0504 13.2232 9.84749 12.7857 8.72349 12.4819V10.3433C9.18098 10.4205 9.61236 10.6082 9.98115 10.8901C10.0547 10.9406 10.1409 10.9679 10.2303 10.9691C10.5164 10.9691 10.7497 10.7388 10.7528 10.4527C10.7534 10.33 10.7054 10.2121 10.6191 10.1246C10.0863 9.66832 9.41794 9.39918 8.71741 9.35908V8.64215C8.71741 8.43739 8.55155 8.27153 8.3468 8.27153C8.34255 8.27088 8.33828 8.27088 8.33403 8.27088ZM8.72349 13.6971C9.41004 13.8915 9.94468 14.1528 9.93861 14.7907C9.93861 15.2525 9.62267 15.7993 8.72349 15.9086V13.6971ZM7.95796 10.3008V12.2875C7.29571 12.0931 6.77929 11.8926 6.77929 11.3276C6.77929 10.7625 7.24712 10.3555 7.95796 10.3008ZM8.29826 0.833344C10.35 0.833344 12.0192 2.50283 12.0192 4.55457V4.63086H10.8916V4.55457C10.8916 3.12447 9.7284 1.96086 8.2983 1.96086C6.8682 1.96086 5.70497 3.12447 5.70497 4.55457V4.63086H4.57741V4.55457C4.57741 2.50283 6.24652 0.833344 8.29826 0.833344Z" fill="#637381"/>
</svg>
