<svg width="32" height="39" viewBox="0 0 32 39" fill="none" xmlns="http://www.w3.org/2000/svg">
<path d="M20.2034 12.6808V4.73518H21.4872C22.8994 4.73518 24.0548 3.7136 24.0548 2.465C24.0548 1.2164 22.8994 0.194824 21.4872 0.194824H11.2168C9.80464 0.194824 8.64922 1.2164 8.64922 2.465C8.64922 3.7136 9.80464 4.73518 11.2168 4.73518H12.5006V12.6808L0.946411 36.5177C0.946411 37.7663 2.10183 38.7878 3.51401 38.7878H29.19C30.6022 38.7878 31.7576 37.7663 31.7576 36.5177L20.2034 12.6808ZM5.69647 35.3826L16.0953 14.0429L16.352 13.3619L16.6088 14.0429L27.0076 35.3826H5.69647Z" fill="#7449D0"/>
<path d="M23.1561 33.1125L20.3318 27.2102L9.54785 33.1125H23.1561Z" fill="#7449D0"/>
</svg>
