<svg width="47" height="28" viewBox="0 0 47 28" fill="none" xmlns="http://www.w3.org/2000/svg">
<path d="M23.3522 0.419189C10.6426 0.419189 0.243774 14.1136 0.243774 14.1136C0.243774 14.1136 10.6426 27.8081 23.3522 27.8081C36.0619 27.8081 46.4607 14.1136 46.4607 14.1136C46.4607 14.1136 36.0619 0.419189 23.3522 0.419189ZM23.3522 24.0733C15.521 24.0733 8.46012 17.5995 5.25061 14.1136C8.97364 10.1298 16.0346 4.15404 23.3522 4.15404C31.1834 4.15404 38.2444 10.6278 41.4539 14.1136C37.7308 18.0975 30.6699 24.0733 23.3522 24.0733Z" fill="#7449D0"/>
<path d="M23.3522 20.3384C26.8974 20.3384 29.7712 17.5515 29.7712 14.1136C29.7712 10.6758 26.8974 7.88892 23.3522 7.88892C19.8071 7.88892 16.9332 10.6758 16.9332 14.1136C16.9332 17.5515 19.8071 20.3384 23.3522 20.3384Z" fill="#7449D0"/>
</svg>
