<svg width="40" height="38" viewBox="0 0 40 38" fill="none" xmlns="http://www.w3.org/2000/svg">
<path d="M2.47287 14.5705C2.81257 15.5588 3.71842 16.1078 4.62428 16.1078C4.85074 16.1078 5.07721 16.1078 5.30367 15.998L12.0976 13.8019C13.2299 13.4725 13.9093 12.1548 13.5696 11.0567C13.2299 9.95865 11.8711 9.29981 10.7388 9.62923L9.38002 10.0685C12.0976 6.99386 16.1739 5.12714 20.4768 5.12714C28.5162 5.12714 35.0837 11.4959 35.1969 19.2922H39.7262C39.613 9.08019 31.0073 0.734863 20.4768 0.734863C14.3622 0.734863 8.70063 3.58984 5.07721 8.20174L4.51105 6.66444C4.17135 5.56637 2.81257 4.90753 1.68025 5.23695C0.547925 5.56637 -0.131467 6.88405 0.208229 7.98212L2.47287 14.5705Z" fill="#7449D0"/>
<path d="M37.3483 24.0137C37.0086 23.1352 36.1027 22.4764 35.1969 22.4764C34.9704 22.4764 34.744 22.4764 34.5175 22.5862L27.7236 24.7823C26.5913 25.1117 25.9119 26.4294 26.2516 27.5275C26.5913 28.6255 27.95 29.2844 29.0824 28.9549L30.4411 28.5157C27.7236 31.5903 23.6472 33.457 19.3444 33.457C11.3049 33.5668 4.73748 27.198 4.62425 19.4019H0.0949707C0.208203 29.6138 8.81383 37.959 19.3444 37.959C25.4589 37.959 31.1205 35.104 34.744 30.4922L35.3101 32.1393C35.6498 33.2373 37.0086 33.8962 38.1409 33.5668C39.2732 33.2373 39.9526 31.9197 39.6129 30.8216L37.3483 24.0137Z" fill="#7449D0"/>
</svg>
