<svg width="40" height="43" viewBox="0 0 40 43" fill="none" xmlns="http://www.w3.org/2000/svg">
<path d="M22.4872 5.10433V3.73488H23.771V0H16.0682V3.73488H17.352V5.10433C7.98026 6.34929 0.662598 14.1925 0.662598 23.6542C0.662598 33.9874 9.26407 42.3286 19.9196 42.3286C30.5752 42.3286 39.1766 33.9874 39.1766 23.6542C39.1766 14.1925 31.859 6.34929 22.4872 5.10433ZM19.9196 38.5937C11.4465 38.5937 4.514 31.871 4.514 23.6542C4.514 15.4375 11.4465 8.71471 19.9196 8.71471C28.3927 8.71471 35.3252 15.4375 35.3252 23.6542C35.3252 31.871 28.3927 38.5937 19.9196 38.5937Z" fill="#7449D0"/>
<path d="M19.9196 12.4497V23.6543L28.136 31.6221C30.1901 29.5056 31.4739 26.7667 31.4739 23.6543C31.4739 17.4295 26.3386 12.4497 19.9196 12.4497Z" fill="#7449D0"/>
</svg>
