<svg width="20" height="20" viewBox="0 0 20 20" fill="none" xmlns="http://www.w3.org/2000/svg">
<path d="M15.8334 9.16634H10.8334V4.16634C10.8334 3.7061 10.4603 3.33301 10 3.33301C9.5398 3.33301 9.16671 3.7061 9.16671 4.16634V9.16634H4.16671C3.70647 9.16634 3.33337 9.53944 3.33337 9.99967C3.33337 10.4599 3.70647 10.833 4.16671 10.833H9.16671V15.833C9.16671 16.2932 9.5398 16.6663 10 16.6663C10.4603 16.6663 10.8334 16.2932 10.8334 15.833V10.833H15.8334C16.2936 10.833 16.6667 10.4599 16.6667 9.99967C16.6667 9.53944 16.2936 9.16634 15.8334 9.16634Z" fill="white"/>
</svg>
