<svg width="16" height="18" viewBox="0 0 16 18" fill="none" xmlns="http://www.w3.org/2000/svg">
<path fill-rule="evenodd" clip-rule="evenodd" d="M13.6001 10.1667L15.1001 11.675C15.4853 12.0666 15.5985 12.6508 15.3877 13.158C15.1768 13.6652 14.6827 13.9969 14.1334 14H11.3334V14.2833C11.2523 16.0447 9.76171 17.4087 8.00006 17.3333C6.23841 17.4087 4.74777 16.0447 4.66672 14.2833V14H1.86672C1.31742 13.9969 0.823342 13.6652 0.612455 13.158C0.401568 12.6508 0.514859 12.0666 0.900057 11.675L2.40006 10.1667V6.27499C2.40301 4.6593 3.10159 3.12313 4.31733 2.05896C5.53306 0.994791 7.14819 0.505705 8.75006 0.716659C11.5713 1.14906 13.6413 3.59611 13.6001 6.44999V10.1667ZM7.99999 15.6667C8.83617 15.7257 9.57065 15.1161 9.66666 14.2833V14H6.33333V14.2833C6.42934 15.1161 7.16382 15.7257 7.99999 15.6667Z" fill="#637381"/>
</svg>
